<svg width="860" height="220" viewBox="0 0 860 220" fill="none" xmlns="http://www.w3.org/2000/svg">
  <defs>
    <linearGradient id="bg" x1="32" y1="22" x2="223" y2="236" gradientUnits="userSpaceOnUse">
      <stop stop-color="#0F1D2E"/>
      <stop offset="0.55" stop-color="#08131F"/>
      <stop offset="1" stop-color="#040B13"/>
    </linearGradient>
    <linearGradient id="frame" x1="34" y1="28" x2="216" y2="230" gradientUnits="userSpaceOnUse">
      <stop stop-color="#36506D"/>
      <stop offset="1" stop-color="#142233"/>
    </linearGradient>
    <linearGradient id="brand" x1="72" y1="58" x2="184" y2="196" gradientUnits="userSpaceOnUse">
      <stop stop-color="#9EEBFF"/>
      <stop offset="0.52" stop-color="#38C8FF"/>
      <stop offset="1" stop-color="#2FE9A9"/>
    </linearGradient>
    <radialGradient id="glow" cx="0" cy="0" r="1" gradientUnits="userSpaceOnUse" gradientTransform="translate(190 62) rotate(137.29) scale(101.499)">
      <stop stop-color="#42D4FF" stop-opacity="0.46"/>
      <stop offset="1" stop-color="#42D4FF" stop-opacity="0"/>
    </radialGradient>
    <clipPath id="shield-clip">
      <path d="M128 44L184 67C191.4 70 196.2 77.1 196.2 85.1V118.7C196.2 159.5 171 196.1 128 220C85 196.1 59.8 159.5 59.8 118.7V85.1C59.8 77.1 64.6 70 72 67L128 44Z"/>
    </clipPath>
    <filter id="shadow" x="0" y="0" width="220" height="220" filterUnits="userSpaceOnUse" color-interpolation-filters="sRGB">
      <feDropShadow dx="0" dy="18" stdDeviation="18" flood-color="#01060C" flood-opacity="0.5"/>
    </filter>
    <linearGradient id="title-fill" x1="218" y1="66" x2="680" y2="124" gradientUnits="userSpaceOnUse">
      <stop stop-color="#F5FBFF"/>
      <stop offset="0.5" stop-color="#D9E8F5"/>
      <stop offset="1" stop-color="#A0B0C0"/>
    </linearGradient>
    <linearGradient id="title-accent" x1="218" y1="66" x2="284" y2="120" gradientUnits="userSpaceOnUse">
      <stop stop-color="#A1EEFF"/>
      <stop offset="1" stop-color="#2FE9A9"/>
    </linearGradient>
  </defs>

  <g transform="translate(0 0)">
    <g transform="translate(0 0) scale(0.82)" filter="url(#shadow)">
      <rect x="24" y="24" width="208" height="208" rx="56" fill="url(#bg)"/>
      <rect x="24.75" y="24.75" width="206.5" height="206.5" rx="55.25" stroke="url(#frame)" stroke-width="1.5"/>
      <circle cx="190" cy="62" r="60" fill="url(#glow)"/>
      <path d="M128 44L184 67C191.4 70 196.2 77.1 196.2 85.1V118.7C196.2 159.5 171 196.1 128 220C85 196.1 59.8 159.5 59.8 118.7V85.1C59.8 77.1 64.6 70 72 67L128 44Z" fill="url(#brand)"/>
      <path d="M128 44L184 67C191.4 70 196.2 77.1 196.2 85.1V118.7C196.2 159.5 171 196.1 128 220C85 196.1 59.8 159.5 59.8 118.7V85.1C59.8 77.1 64.6 70 72 67L128 44Z" stroke="#D6F6FF" stroke-opacity="0.16" stroke-width="2"/>
      <g clip-path="url(#shield-clip)">
        <rect x="78" y="119" width="100" height="18" rx="9" transform="rotate(45 78 119)" fill="#07121D"/>
        <rect x="91" y="189" width="100" height="18" rx="9" transform="rotate(-45 91 189)" fill="#07121D"/>
        <circle cx="128" cy="132" r="13" fill="#07121D"/>
      </g>
      <path d="M128 58L173.8 76.8C178.7 78.8 181.8 83.5 181.8 88.8V117.5C181.8 149.9 161.6 179.5 128 199.3C94.4 179.5 74.2 149.9 74.2 117.5V88.8C74.2 83.5 77.3 78.8 82.2 76.8L128 58Z" stroke="#F6FDFF" stroke-opacity="0.12" stroke-width="1.5"/>
      <path d="M149 72.5L172.2 82.1C176 83.6 178.4 87.2 178.4 91.3V117.1C178.4 147 159.8 174.4 128 193.2" stroke="#F2FEFF" stroke-opacity="0.22" stroke-width="3" stroke-linecap="round"/>
      <circle cx="174.8" cy="86.4" r="5.2" fill="#9EEBFF"/>
    </g>

    <text x="214" y="96" fill="url(#title-fill)" font-family="Geist, Inter, 'Segoe UI', Arial, sans-serif" font-size="74" font-weight="700" letter-spacing="8">XGUARD</text>
    <text x="214" y="96" fill="url(#title-accent)" font-family="Geist, Inter, 'Segoe UI', Arial, sans-serif" font-size="74" font-weight="700" letter-spacing="8">X</text>
    <rect x="620" y="42" width="88" height="40" rx="20" fill="#0B1825" stroke="#40CCFF" stroke-opacity="0.35" stroke-width="1.5"/>
    <text x="645" y="69" fill="#A5EEFF" font-family="Geist, Inter, 'Segoe UI', Arial, sans-serif" font-size="20" font-weight="700" letter-spacing="6">AI</text>
    <path d="M216 128H706" stroke="#203548" stroke-width="1.5"/>
    <text x="216" y="162" fill="#6D8196" font-family="Geist, Inter, 'Segoe UI', Arial, sans-serif" font-size="21" font-weight="600" letter-spacing="4">EXPLAINABLE INTRUSION DETECTION</text>
  </g>
</svg>
